<?xml version="1.0" standalone="no"?>
<!DOCTYPE svg PUBLIC "-//W3C//DTD SVG 20010904//EN"
 "http://www.w3.org/TR/2001/REC-SVG-20010904/DTD/svg10.dtd">
<svg version="1.0" xmlns="http://www.w3.org/2000/svg"
 width="600.000000pt" height="600.000000pt" viewBox="0 0 600.000000 600.000000"
 preserveAspectRatio="xMidYMid meet">
<metadata>
Created by potrace 1.11, written by Peter Selinger 2001-2013
</metadata>
<g transform="translate(0.000000,600.000000) scale(0.100000,-0.100000)"
fill="#000000" stroke="none">
<path d="M1370 5540 c-381 -81 -671 -370 -751 -750 -16 -80 -18 -191 -18
-1790 0 -1643 0 -1708 19 -1792 64 -291 242 -525 500 -660 81 -42 148 -65 253
-89 78 -17 163 -18 1807 -16 1620 2 1727 3 1760 19 48 24 81 56 110 103 22 36
25 54 28 173 4 148 -9 209 -58 260 -45 46 -54 109 -54 397 -1 242 11 385 33
385 10 0 55 71 68 109 10 28 13 401 12 1756 0 1930 6 1765 -74 1846 -74 75 66
69 -1840 68 -1610 -1 -1715 -2 -1795 -19z m2730 -1280 c18 -18 20 -33 20 -140
0 -107 -2 -122 -20 -140 -20 -20 -33 -20 -1100 -20 -1067 0 -1080 0 -1100 20
-18 18 -20 33 -20 140 0 107 2 122 20 140 20 20 33 20 1100 20 1067 0 1080 0
1100 -20z m0 -640 c18 -18 20 -33 20 -140 0 -107 -2 -122 -20 -140 -20 -20
-33 -20 -1100 -20 -1067 0 -1080 0 -1100 20 -18 18 -20 33 -20 140 0 107 2
122 20 140 20 20 33 20 1100 20 1067 0 1080 0 1100 -20z m313 -1912 c2 -7 0
-28 -4 -46 -7 -34 -6 -535 2 -562 4 -13 -163 -15 -1452 -17 -1586 -3 -1487 -6
-1574 50 -147 96 -188 307 -86 447 47 65 81 92 155 121 37 15 173 17 1498 18
1161 1 1457 -1 1461 -11z"/>
</g>
</svg>
